<?xml version="1.0" standalone="no"?>
<!DOCTYPE svg PUBLIC "-//W3C//DTD SVG 20010904//EN"
 "http://www.w3.org/TR/2001/REC-SVG-20010904/DTD/svg10.dtd">
<svg version="1.0" xmlns="http://www.w3.org/2000/svg"
 width="1085.000000pt" height="1280.000000pt" viewBox="0 0 1085.000000 1280.000000"
 preserveAspectRatio="xMidYMid meet">

<g transform="translate(0.000000,1280.000000) scale(0.100000,-0.100000)"
fill="#000000" stroke="none">
<path d="M5170 12789 c-366 -27 -715 -123 -1049 -290 -135 -67 -346 -194 -386
-232 -7 -7 -23 -19 -35 -27 -87 -58 -306 -263 -413 -388 -40 -46 -104 -129
-144 -185 -39 -56 -81 -114 -93 -129 -12 -15 -18 -33 -14 -39 4 -8 3 -9 -4 -5
-13 8 -52 -56 -127 -212 -77 -157 -68 -154 13 4 60 118 73 137 127 180 33 27
62 51 65 54 3 3 21 17 40 30 19 13 37 27 40 30 3 3 21 17 40 30 19 13 41 30
48 37 7 7 17 13 21 13 4 0 21 11 37 25 53 46 47 26 -12 -37 -96 -104 -233
-285 -279 -368 -19 -35 16 10 74 97 83 122 230 292 336 389 46 42 82 81 78 87
-3 6 -1 7 4 4 6 -4 47 23 93 58 715 564 1717 751 2564 478 263 -85 563 -239
748 -385 22 -17 43 -26 50 -22 7 4 10 4 6 -1 -9 -9 9 -35 24 -35 5 0 6 6 2 13
-5 8 -2 8 9 -2 20 -16 22 -25 5 -16 -7 4 14 -17 47 -46 76 -67 232 -223 314
-314 52 -58 56 -60 20 -15 -23 30 -115 127 -203 215 -88 88 -146 148 -130 133
27 -24 47 -36 149 -91 22 -12 44 -25 50 -30 11 -8 178 -116 240 -155 22 -14
35 -19 29 -11 -6 8 -27 35 -46 60 -123 163 -329 376 -481 496 -40 31 -74 59
-77 62 -3 4 -21 17 -40 31 -169 118 -304 199 -455 270 -85 40 -144 63 -305
120 -153 55 -416 104 -632 120 -161 11 -181 11 -348 -1z m-1680 -972 c0 -1
-26 -27 -57 -57 l-58 -55 55 58 c50 53 60 62 60 54z m-470 -357 c-6 -11 -13
-20 -16 -20 -2 0 0 9 6 20 6 11 13 20 16 20 2 0 0 -9 -6 -20z"/>
<path d="M7460 11506 c0 -2 8 -10 18 -17 15 -13 16 -12 3 4 -13 16 -21 21 -21
13z"/>
<path d="M7490 11466 c0 -2 8 -10 18 -17 15 -13 16 -12 3 4 -13 16 -21 21 -21
13z"/>
<path d="M3020 11240 c-6 -11 -8 -20 -6 -20 3 0 10 9 16 20 6 11 8 20 6 20 -3
0 -10 -9 -16 -20z"/>
<path d="M2965 11140 c-9 -16 -13 -30 -11 -30 3 0 12 14 21 30 9 17 13 30 11
30 -3 0 -12 -13 -21 -30z"/>
<path d="M2821 11099 c-11 -28 -21 -57 -21 -63 1 -6 12 16 25 48 14 33 23 61
21 63 -2 2 -13 -20 -25 -48z"/>
<path d="M7680 10647 c0 -2 15 -16 33 -33 l32 -29 -29 33 c-28 30 -36 37 -36
29z"/>
<path d="M2584 10338 c-16 -34 -28 -65 -26 -70 1 -4 -2 -8 -8 -8 -5 0 -10 -7
-10 -15 0 -8 -16 -44 -35 -80 -19 -36 -32 -65 -29 -65 3 0 -6 -20 -20 -45 -15
-25 -24 -45 -21 -45 4 0 -2 -17 -13 -37 -31 -61 -56 -124 -54 -135 1 -5 -3 -8
-10 -8 -6 0 -8 -3 -5 -7 4 -3 2 -12 -4 -20 -6 -7 -8 -13 -5 -13 4 0 1 -10 -6
-22 -7 -13 -11 -26 -10 -30 1 -5 -3 -8 -10 -8 -6 0 -8 -3 -5 -7 4 -3 2 -12 -4
-20 -6 -7 -8 -13 -5 -13 4 0 1 -10 -6 -22 -7 -13 -13 -26 -14 -30 -1 -5 -3
-10 -4 -13 -1 -3 -4 -9 -5 -15 -1 -5 -3 -11 -4 -12 -2 -2 -4 -14 -7 -27 -2
-14 -9 -30 -15 -38 -6 -7 -8 -13 -4 -13 4 0 0 -11 -9 -25 -9 -14 -14 -30 -11
-35 3 -6 1 -10 -6 -10 -7 0 -9 -3 -6 -7 4 -3 2 -12 -5 -20 -6 -7 -8 -16 -5
-20 4 -3 2 -12 -4 -20 -6 -7 -8 -13 -4 -13 4 0 2 -6 -4 -13 -6 -8 -12 -22 -14
-33 -2 -10 -7 -26 -10 -34 -4 -8 -8 -24 -10 -35 -2 -11 -7 -27 -10 -35 -4 -8
-8 -24 -10 -35 -2 -11 -7 -27 -11 -36 -4 -9 -8 -27 -10 -40 -2 -13 -6 -31 -10
-40 -4 -9 -8 -27 -10 -40 -2 -13 -6 -31 -9 -39 -11 -26 -55 -261 -71 -375 -42
-302 -41 -407 10 -562 111 -339 457 -716 735 -799 32 -10 59 -21 59 -25 0 -3
11 -4 25 -1 24 4 33 17 17 24 -10 3 -172 244 -172 254 0 3 -10 20 -22 37 -13
18 -23 36 -23 41 0 5 -6 11 -14 14 -9 3 -11 0 -6 -9 5 -8 4 -11 -1 -6 -5 5 -9
12 -9 17 0 4 -25 27 -55 51 -182 142 -304 326 -345 520 -20 94 -21 329 -1 470
39 275 118 562 255 923 23 60 39 111 37 113 -2 2 -20 -41 -41 -97 -21 -55 -40
-98 -42 -96 -4 4 59 198 80 249 7 15 15 27 18 27 3 0 6 6 7 13 2 31 10 64 20
87 13 29 42 172 42 205 0 13 5 25 10 27 10 3 28 308 18 308 -2 0 -18 -28 -34
-62z m-173 -895 c-12 -20 -14 -14 -5 12 4 9 9 14 11 11 3 -2 0 -13 -6 -23z"/>
<path d="M2745 10327 c-22 -53 -17 -70 6 -18 11 24 17 46 14 49 -2 3 -12 -11
-20 -31z"/>
<path d="M7831 10294 c0 -11 3 -14 6 -6 3 7 2 16 -1 19 -3 4 -6 -2 -5 -13z"/>
<path d="M7842 10230 c0 -14 2 -19 5 -12 2 6 2 18 0 25 -3 6 -5 1 -5 -13z"/>
<path d="M7852 10170 c0 -14 2 -19 5 -12 2 6 2 18 0 25 -3 6 -5 1 -5 -13z"/>
<path d="M7863 10055 c0 -27 2 -38 4 -22 2 15 2 37 0 50 -2 12 -4 0 -4 -28z"/>
<path d="M7874 9875 c0 -55 1 -76 3 -47 2 29 2 74 0 100 -2 26 -3 2 -3 -53z"/>
<path d="M7863 9710 c0 -36 2 -50 4 -32 2 17 2 47 0 65 -2 17 -4 3 -4 -33z"/>
<path d="M8012 9730 c0 -19 2 -27 5 -17 2 9 2 25 0 35 -3 9 -5 1 -5 -18z"/>
<path d="M8003 9625 c0 -27 2 -38 4 -22 2 15 2 37 0 50 -2 12 -4 0 -4 -28z"/>
<path d="M7846 9583 c-18 -151 -71 -353 -140 -532 -40 -104 -41 -105 -24 -95
7 5 8 3 4 -5 -5 -7 -11 -10 -14 -7 -3 4 -34 -48 -68 -114 -350 -678 -1004
-1167 -1754 -1314 -119 -23 -242 -37 -420 -46 l-165 -9 180 4 c99 2 227 11
284 20 57 8 106 14 108 12 2 -3 -9 -7 -24 -10 -25 -5 -113 -76 -113 -90 0 -3
10 -8 23 -10 16 -4 14 -5 -8 -5 -16 1 -39 -3 -50 -8 -11 -5 -155 -9 -320 -9
-211 0 -276 -2 -220 -8 120 -12 524 -1 638 17 370 60 694 174 993 352 93 55
105 54 206 -11 78 -51 425 -392 569 -560 239 -280 419 -555 589 -900 247 -504
401 -1033 461 -1585 17 -148 17 -557 1 -680 -14 -106 -57 -335 -74 -392 l-11
-38 -109 0 c-225 0 -602 -31 -806 -65 -231 -40 -461 -103 -637 -175 -122 -50
-238 -117 -229 -132 4 -7 2 -8 -4 -4 -13 8 -92 -51 -92 -67 0 -6 10 -2 23 9
l22 19 -19 -22 c-10 -12 -23 -21 -29 -20 -10 2 -57 -59 -57 -74 0 -5 60 -9
134 -9 120 0 135 2 139 17 3 10 5 3 6 -16 4 -137 176 -248 535 -346 50 -14 72
-23 49 -20 l-43 5 0 -116 0 -116 -42 7 c-24 4 -40 4 -37 1 9 -10 267 -61 394
-79 237 -33 392 -42 760 -42 411 0 578 13 880 65 111 20 130 20 60 1 -38 -10
-62 -19 -52 -20 16 -1 17 -37 17 -606 0 -366 4 -605 9 -605 5 0 16 7 25 15 8
9 18 14 20 13 3 -2 14 4 24 13 10 8 24 18 32 21 23 9 178 139 242 202 160 158
274 308 343 451 103 213 185 532 220 856 9 79 18 168 22 196 10 92 -54 194
-185 293 l-33 25 106 147 c146 200 196 261 228 276 16 8 84 18 153 22 156 12
191 18 230 41 62 37 69 101 24 198 -45 94 -140 212 -249 308 -64 57 -68 57
-27 -2 17 -25 17 -28 2 -15 -16 12 -19 12 -27 -2 -5 -10 -15 -23 -22 -30 -7
-7 -24 -29 -37 -48 -13 -19 -27 -37 -30 -40 -3 -3 -23 -27 -44 -55 l-38 -50
24 -7 c13 -4 -2 -5 -32 -1 -47 5 -82 13 -199 50 -9 2 7 -10 34 -29 83 -54 107
-76 99 -89 -4 -7 -3 -9 4 -5 6 3 14 1 18 -5 4 -7 3 -9 -4 -5 -6 3 -21 -8 -33
-26 -13 -18 -26 -35 -29 -38 -3 -3 -34 -43 -70 -90 -35 -47 -67 -87 -70 -90
-3 -3 -17 -21 -30 -40 -13 -19 -27 -37 -30 -40 -3 -3 -17 -21 -30 -40 -13 -19
-27 -37 -30 -40 -3 -3 -35 -43 -70 -90 -36 -47 -67 -87 -70 -90 -3 -3 -17 -21
-30 -40 -13 -19 -27 -37 -30 -40 -3 -3 -34 -43 -70 -90 -35 -47 -67 -87 -70
-90 -3 -3 -17 -21 -30 -40 -13 -19 -27 -37 -30 -40 -3 -3 -17 -21 -30 -40 -13
-19 -27 -37 -30 -40 -3 -3 -35 -43 -70 -90 -36 -47 -73 -94 -83 -105 -18 -19
-17 -20 5 -26 26 -6 48 -1 -182 -42 -80 -14 -221 -33 -315 -41 -183 -17 -625
-28 -625 -16 0 4 35 36 78 71 257 211 652 542 652 546 0 5 -20 -6 -45 -26 -20
-16 -20 -15 -2 5 14 17 17 40 17 132 0 82 3 112 13 113 6 1 -6 5 -28 9 l-40 7
50 2 c28 0 106 -6 174 -14 l123 -16 45 37 c34 28 42 39 31 45 -36 20 -366 56
-686 75 -103 6 -112 8 -107 24 21 66 67 330 81 460 26 251 11 594 -42 910 -72
434 -220 895 -418 1297 -109 221 -156 303 -292 508 -163 247 -299 410 -559
674 -224 228 -314 305 -390 337 l-37 15 58 45 c237 180 335 270 456 413 225
269 438 636 498 861 10 36 14 41 20 26 6 -17 8 -16 18 12 6 19 7 32 1 32 -5 0
-9 -5 -9 -12 0 -6 -2 -9 -5 -7 -8 9 21 90 30 82 4 -4 5 -3 2 3 -8 14 3 75 12
70 3 -2 6 16 7 40 l1 43 -37 -29 c-20 -16 -56 -48 -80 -71 -37 -36 -42 -38
-36 -18 32 115 76 369 64 369 -3 0 -8 -26 -12 -57z m-66 -380 c-11 -17 -11
-17 -6 0 3 10 6 24 7 30 0 9 2 9 5 0 3 -7 0 -20 -6 -30z m-1883 -1699 c-3 -3
-12 -4 -19 -1 -8 3 -5 6 6 6 11 1 17 -2 13 -5z m10 -90 c-3 -3 -12 -4 -19 -1
-8 3 -5 6 6 6 11 1 17 -2 13 -5z m-44 -11 c-7 -2 -19 -2 -25 0 -7 3 -2 5 12 5
14 0 19 -2 13 -5z m-65 -10 c-10 -2 -26 -2 -35 0 -10 3 -2 5 17 5 19 0 27 -2
18 -5z m1064 -4302 c-9 -16 -18 -28 -21 -26 -4 5 27 55 34 55 2 0 -4 -13 -13
-29z m2967 -243 c-10 -18 -9 -20 5 -15 27 11 18 0 -19 -22 -42 -24 -43 -21 -9
25 30 39 40 44 23 12z m-2332 -204 c-3 -3 -12 -4 -19 -1 -8 3 -5 6 6 6 11 1
17 -2 13 -5z m2030 -230 c-3 -3 -12 -4 -19 -1 -8 3 -5 6 6 6 11 1 17 -2 13 -5z"/>
<path d="M7992 9545 c0 -16 2 -22 5 -12 2 9 2 23 0 30 -3 6 -5 -1 -5 -18z"/>
<path d="M7981 9490 c-1 -14 -4 -36 -6 -50 l-6 -25 11 25 c6 13 9 36 7 50 l-4
25 -2 -25z"/>
<path d="M7961 9384 c0 -11 3 -14 6 -6 3 7 2 16 -1 19 -3 4 -6 -2 -5 -13z"/>
<path d="M7907 9076 c-21 -47 -21 -67 -2 -192 51 -334 17 -671 -88 -871 -76
-147 -233 -313 -401 -424 -92 -61 -94 -64 -73 -78 12 -8 25 -20 29 -25 4 -6
42 -11 85 -11 62 0 88 5 126 24 95 47 220 185 301 332 153 279 171 612 62
1169 l-22 115 -17 -39z"/>
<path d="M6900 7806 c0 -1 33 -25 73 -51 88 -59 173 -123 250 -188 32 -27 60
-47 63 -45 7 7 -159 140 -277 221 -89 62 -109 73 -109 63z"/>
<path d="M3738 7732 c-142 -98 -297 -223 -401 -325 l-92 -88 105 92 c237 209
478 384 514 373 17 -4 18 -3 6 5 -23 17 -29 14 -132 -57z"/>
<path d="M3766 7688 c-942 -674 -1612 -1944 -1706 -3234 -11 -152 -11 -337 0
-414 5 -34 6 -3 2 80 -8 232 30 627 88 910 131 628 391 1237 747 1748 263 377
577 695 917 930 49 34 84 62 79 62 -6 0 -63 -37 -127 -82z"/>
<path d="M3912 7709 c-38 -28 -40 -32 -44 -89 -1 -33 -1 -60 2 -60 3 0 37 32
75 70 73 74 73 72 24 100 -12 7 -27 1 -57 -21z"/>
<path d="M3799 7673 c-13 -16 -12 -17 4 -4 16 13 21 21 13 21 -2 0 -10 -8 -17
-17z"/>
<path d="M2664 7565 c27 -21 196 -107 196 -101 0 3 -28 20 -62 37 -34 17 -79
42 -100 55 -41 26 -65 32 -34 9z"/>
<path d="M4778 7533 c7 -3 16 -2 19 1 4 3 -2 6 -13 5 -11 0 -14 -3 -6 -6z"/>
<path d="M4828 7523 c7 -3 16 -2 19 1 4 3 -2 6 -13 5 -11 0 -14 -3 -6 -6z"/>
<path d="M4868 7513 c7 -3 16 -2 19 1 4 3 -2 6 -13 5 -11 0 -14 -3 -6 -6z"/>
<path d="M4470 7500 c8 -5 20 -10 25 -10 6 0 3 5 -5 10 -8 5 -19 10 -25 10 -5
0 -3 -5 5 -10z"/>
<path d="M4928 7503 c6 -2 18 -2 25 0 6 3 1 5 -13 5 -14 0 -19 -2 -12 -5z"/>
<path d="M4978 7493 c6 -2 18 -2 25 0 6 3 1 5 -13 5 -14 0 -19 -2 -12 -5z"/>
<path d="M4525 7480 c11 -5 27 -9 35 -9 9 0 8 4 -5 9 -11 5 -27 9 -35 9 -9 0
-8 -4 5 -9z"/>
<path d="M5063 7483 c9 -2 23 -2 30 0 6 3 -1 5 -18 5 -16 0 -22 -2 -12 -5z"/>
<path d="M5148 7473 c17 -2 47 -2 65 0 17 2 3 4 -33 4 -36 0 -50 -2 -32 -4z"/>
<path d="M4660 7440 c34 -11 60 -11 35 0 -11 5 -29 8 -40 8 -16 0 -15 -2 5 -8z"/>
<path d="M4765 7414 c28 -7 59 -13 70 -13 11 0 -5 7 -35 14 -72 18 -100 17
-35 -1z"/>
<path d="M4868 7393 c6 -2 18 -2 25 0 6 3 1 5 -13 5 -14 0 -19 -2 -12 -5z"/>
<path d="M4923 7383 c9 -2 25 -2 35 0 9 3 1 5 -18 5 -19 0 -27 -2 -17 -5z"/>
<path d="M4993 7373 c9 -2 25 -2 35 0 9 3 1 5 -18 5 -19 0 -27 -2 -17 -5z"/>
<path d="M7826 6907 c3 -10 9 -15 12 -12 3 3 0 11 -7 18 -10 9 -11 8 -5 -6z"/>
<path d="M2719 6643 c-13 -16 -12 -17 4 -4 9 7 17 15 17 17 0 8 -8 3 -21 -13z"/>
<path d="M3959 5354 c-90 -27 -157 -133 -146 -229 12 -114 78 -166 299 -240
168 -56 189 -66 217 -101 59 -75 -12 -257 -116 -301 -29 -12 -33 -18 -33 -52
l0 -39 40 10 c148 38 262 192 247 334 -13 128 -69 165 -339 224 -109 24 -176
61 -216 120 -20 29 -23 45 -20 95 6 94 46 135 131 135 53 0 100 -28 117 -69
12 -29 11 -33 -9 -47 -31 -22 -27 -65 12 -116 47 -61 67 -57 89 17 19 60 14
105 -12 105 -5 0 -19 23 -31 50 -25 58 -64 95 -117 110 -46 12 -56 12 -113 -6z"/>
<path d="M3400 4778 c0 -16 48 -37 109 -48 78 -14 141 -45 235 -115 97 -72
166 -105 265 -125 l84 -17 0 -126 0 -127 28 0 28 0 3 137 3 137 32 8 c71 18
133 118 133 214 0 23 -6 47 -13 53 -15 12 -907 21 -907 9z"/>
<path d="M4495 4710 c-1 -44 -7 -85 -15 -100 -15 -28 -16 -28 54 28 50 40 140
80 207 92 61 11 109 32 109 48 0 4 -80 7 -177 7 l-178 0 0 -75z"/>
<path d="M4001 4443 c-52 -26 -91 -87 -91 -142 0 -25 6 -57 13 -70 37 -73 165
-121 265 -100 105 21 178 75 188 140 11 67 -58 104 -160 85 -29 -6 -36 -11
-36 -31 0 -20 5 -24 38 -27 32 -3 37 -7 40 -30 6 -54 -74 -89 -169 -73 -92 16
-120 99 -54 161 27 25 35 41 35 68 0 42 -15 46 -69 19z"/>
<path d="M8693 4320 c0 -30 2 -43 4 -27 2 15 2 39 0 55 -2 15 -4 2 -4 -28z"/>
<path d="M4040 4285 c-14 -17 -5 -48 13 -43 14 5 23 58 9 58 -5 0 -15 -7 -22
-15z"/>
<path d="M3953 4125 c-10 -27 5 -87 29 -112 40 -43 95 -64 197 -75 53 -6 106
-17 119 -24 19 -13 22 -13 22 1 0 25 -41 43 -135 59 -107 19 -135 37 -155 99
-10 29 -23 50 -38 57 -30 13 -32 13 -39 -5z"/>
<path d="M4096 4064 c1 -35 15 -54 42 -54 8 0 12 16 12 45 0 42 -2 45 -27 45
-26 0 -28 -3 -27 -36z"/>
<path d="M1990 3998 c0 -4 14 -8 30 -8 17 0 30 2 30 4 0 2 -13 6 -30 8 -16 3
-30 1 -30 -4z"/>
<path d="M1881 3970 c-45 -11 -80 -38 -102 -80 -17 -31 -19 -61 -19 -297 0
-312 -3 -303 105 -303 l65 0 0 -65 0 -65 -92 0 c-138 -1 -201 -37 -247 -141
-20 -45 -23 -47 -78 -57 -228 -44 -1364 -254 -1428 -265 -44 -7 -79 -16 -77
-20 1 -4 2 -362 2 -795 l0 -788 95 -77 95 -77 707 135 c390 74 713 135 720
135 7 0 29 -11 49 -25 20 -13 50 -27 68 -31 25 -4 34 -12 42 -37 5 -18 23 -41
43 -54 l34 -23 711 0 c684 0 712 1 743 19 17 11 37 35 43 54 11 28 20 36 56
45 52 14 108 61 137 116 l22 41 0 840 0 840 -22 40 c-50 93 -112 125 -241 125
-49 0 -91 2 -93 4 -2 2 -2 32 -1 65 l4 61 64 0 c107 0 104 -9 104 303 0 253
-1 263 -23 301 -12 22 -38 49 -57 60 -34 21 -48 21 -715 23 -374 1 -695 -2
-714 -7z m843 -17 c-12 -2 -24 -13 -27 -23 -4 -14 1 -20 22 -23 14 -2 -158 -5
-384 -5 -263 -1 -405 2 -395 8 12 8 13 13 2 30 -12 20 -12 20 395 19 225 -1
398 -4 387 -6z m-5 -80 c-27 -7 -31 -41 -5 -46 11 -2 -161 -5 -384 -5 -223 0
-399 2 -392 5 6 2 12 13 12 23 0 10 -6 21 -12 23 -7 3 169 5 392 5 223 0 398
-2 389 -5z m-739 -273 l0 -200 -32 1 c-18 1 -25 3 -15 6 15 4 17 22 17 193 0
171 -2 189 -17 193 -10 3 -3 5 15 6 l32 1 0 -200z m155 0 l0 -200 -37 0 -38 0
0 200 0 200 38 0 37 0 0 -200z m165 0 l0 -200 -40 0 -40 0 0 200 0 200 40 0
40 0 0 -200z m170 1 l0 -199 -40 -4 -40 -4 0 203 0 203 40 0 40 0 0 -199z
m180 -1 l0 -200 -45 0 -45 0 0 200 0 200 45 0 45 0 0 -200z m63 -227 c-7 -2
-13 -13 -13 -24 0 -10 -6 -20 -12 -20 -7 -1 5 -5 27 -9 22 -4 -151 -7 -385 -7
-234 -1 -413 2 -398 6 27 6 27 7 14 34 l-15 27 397 -1 c218 0 391 -3 385 -6z
m-680 -90 c-20 -4 -23 -11 -23 -48 0 -38 3 -43 28 -50 15 -3 194 -10 397 -15
204 -4 371 -8 373 -9 1 0 2 -5 2 -10 0 -15 -55 -20 -350 -31 -270 -10 -371
-20 -426 -40 -24 -9 -24 -10 -24 -169 l0 -160 33 -4 c17 -2 -38 -4 -123 -4
-85 0 -140 2 -122 4 l33 4 -3 110 c-2 62 -7 110 -13 112 -5 1 -20 -36 -32 -82
-24 -93 -36 -112 -55 -92 -22 21 -17 225 6 288 22 59 32 63 147 63 l69 0 0 70
0 70 53 -1 c28 -1 42 -4 30 -6z m1165 -60 l-2 -68 -3 62 c-3 54 -7 62 -26 66
-18 4 -17 5 6 6 l27 1 -2 -67z m259 -105 c38 -21 76 -69 92 -117 6 -19 11 -85
11 -147 l0 -114 -227 2 c-126 1 -203 4 -173 7 l55 6 3 180 c2 128 6 181 15
187 8 5 4 8 -10 8 -12 0 -24 3 -26 8 -3 4 47 5 111 2 85 -4 126 -10 149 -22z
m-1885 -246 l-3 -78 -307 -57 c-169 -32 -475 -89 -680 -127 l-373 -70 -82 62
c-44 34 -75 64 -68 66 20 7 1474 280 1496 281 19 1 20 -4 17 -77z m-2 -301 l0
-199 -37 -11 -38 -10 38 5 37 5 0 -74 0 -73 -377 -73 c-208 -41 -508 -99 -668
-130 l-290 -57 -3 275 c-1 151 -1 276 1 278 4 3 101 23 667 133 201 39 428 84
505 99 77 16 146 29 153 30 9 1 12 -45 12 -198z m1990 79 l0 -70 -985 0 -985
0 0 70 0 70 985 0 985 0 0 -70z m0 -530 l0 -440 -985 0 -985 0 0 440 0 440
985 0 985 0 0 -440z m-1988 -367 c3 -439 3 -449 25 -485 l21 -36 -21 -6 c-53
-12 -886 -166 -898 -165 -8 0 15 8 51 16 36 9 59 18 53 20 -10 4 -13 107 -13
469 l0 464 -27 1 c-23 1 751 164 794 168 9 1 13 -104 15 -446z m-849 270 c-7
-2 -19 -2 -25 0 -7 3 -2 5 12 5 14 0 19 -2 13 -5z m-50 -10 c-7 -2 -19 -2 -25
0 -7 3 -2 5 12 5 14 0 19 -2 13 -5z m-56 -9 c-3 -3 -12 -4 -19 -1 -8 3 -5 6 6
6 11 1 17 -2 13 -5z m-497 -314 c0 -5 6 -10 14 -10 16 0 42 -28 33 -36 -12
-12 -56 -10 -61 2 -3 8 0 14 6 14 9 0 9 3 0 12 -15 15 -16 28 -2 28 6 0 10 -4
10 -10z m3430 -92 l-5 -63 -3 58 c-2 42 -7 57 -17 57 -11 0 -15 -14 -15 -55 0
-37 -4 -55 -12 -56 -7 -1 5 -5 27 -9 22 -4 -404 -8 -947 -9 l-988 -1 0 70 0
70 983 0 982 0 -5 -62z m-3383 18 c12 -12 -20 -26 -34 -14 -7 6 -13 7 -13 4 0
-4 -5 -4 -11 0 -8 4 -7 9 2 15 15 9 45 7 56 -5z m-13 -31 c5 0 11 -5 13 -11 2
-7 -8 -11 -27 -10 -16 0 -30 6 -30 12 0 16 11 24 24 16 6 -4 15 -7 20 -7z m16
-52 c0 -13 -3 -13 -15 -3 -8 7 -15 16 -15 21 0 5 7 6 15 3 8 -4 15 -13 15 -21z
m-4 -86 c0 -23 -5 -45 -11 -49 -6 -5 -6 -8 3 -8 6 0 12 -5 12 -11 0 -12 -59
31 -59 44 -1 5 4 5 11 1 8 -5 8 -3 2 7 -12 18 -14 80 -3 73 5 -3 9 0 9 5 0 6
-4 11 -10 11 -5 0 -10 5 -10 12 0 6 13 -1 29 -16 23 -22 28 -35 27 -69z m1882
46 l-38 -4 0 -205 c0 -156 -3 -204 -12 -206 -7 0 7 -4 32 -8 34 -5 19 -7 -62
-8 -101 -2 -108 -1 -137 24 -21 18 -31 34 -30 52 1 25 2 24 12 -8 10 -30 12
-6 15 150 1 101 0 190 -2 196 -3 7 -17 14 -33 17 -15 2 44 4 132 4 88 0 143
-2 123 -4z m1512 -72 c0 -121 -34 -192 -110 -231 -37 -19 -89 -29 -64 -12 50
33 70 301 23 310 -16 3 -38 -58 -53 -149 -11 -65 -71 -118 -117 -104 -16 5
-19 20 -21 128 l-3 122 -55 6 c-30 3 47 6 173 7 l227 2 0 -79z m-3414 -96 c-2
-7 1 -19 9 -25 20 -17 26 -50 8 -50 -8 0 -12 4 -8 9 3 5 0 13 -6 17 -7 4 -9 3
-5 -4 3 -6 1 -14 -5 -18 -16 -9 -30 17 -18 33 6 6 10 22 9 35 -4 44 0 55 11
35 6 -10 8 -24 5 -32z m28 -16 c-3 -5 -10 -7 -15 -3 -5 3 -7 10 -3 15 3 5 10
7 15 3 5 -3 7 -10 3 -15z m-8 -85 c-3 -7 0 -15 7 -18 9 -3 8 -7 -3 -15 -8 -5
-18 -7 -24 -4 -5 3 -6 1 -2 -6 4 -6 11 -9 16 -6 5 3 11 1 14 -4 13 -21 -12
-18 -40 4 -24 20 -26 24 -10 25 12 0 16 5 12 16 -3 9 -4 20 -1 24 9 14 37 -1
31 -16z m-6 -91 c19 -22 23 -103 5 -103 -6 0 -20 10 -31 23 -10 12 -12 16 -4
10 18 -17 27 -16 27 1 0 8 -3 15 -6 14 -24 -2 -32 4 -26 20 4 9 7 25 7 35 0 9
2 17 6 17 4 0 14 -8 22 -17z m3161 -45 c-30 -27 -36 -28 -124 -26 l-92 2 70 6
c39 4 64 7 56 8 -27 4 9 30 50 37 22 4 45 13 52 20 10 11 13 10 16 -3 2 -9
-11 -29 -28 -44z m-2644 -34 c-3 -3 -12 -4 -19 -1 -8 3 -5 6 6 6 11 1 17 -2
13 -5z"/>
<path d="M1395 2548 c-11 -6 -25 -19 -32 -27 -16 -21 -16 -84 -1 -99 23 -23
108 -8 108 19 0 6 -7 6 -19 -1 -19 -10 -71 -14 -71 -6 0 2 -2 11 -5 18 -4 11
9 18 50 27 58 13 65 23 39 59 -17 24 -38 27 -69 10z m53 -30 c2 -12 -6 -19
-33 -24 -45 -8 -52 -1 -25 26 24 24 53 23 58 -2z"/>
<path d="M1126 2543 c-11 -11 -6 -23 9 -23 8 0 15 4 15 9 0 13 -16 22 -24 14z"/>
<path d="M1235 2510 c-4 -6 -14 -9 -23 -8 -14 3 -17 -8 -20 -69 -2 -62 -1 -72
13 -67 11 5 15 20 15 58 0 54 12 76 41 76 21 0 29 -20 29 -76 0 -28 4 -43 10
-39 11 7 14 94 4 119 -7 18 -59 22 -69 6z"/>
<path d="M910 2485 c0 -8 5 -15 10 -15 6 0 10 7 10 15 0 8 -4 15 -10 15 -5 0
-10 -7 -10 -15z"/>
<path d="M847 2483 c-4 -3 -7 -21 -7 -38 0 -29 -2 -31 -29 -27 -45 6 -73 -27
-69 -85 4 -57 24 -73 65 -53 15 7 34 12 41 11 9 -1 12 24 12 99 0 100 -1 106
-13 93z m-11 -107 c8 -33 -3 -64 -27 -77 -39 -21 -65 33 -39 82 16 28 58 25
66 -5z"/>
<path d="M1120 2419 c0 -93 21 -90 24 4 1 48 -3 67 -11 67 -9 0 -13 -21 -13
-71z"/>
<path d="M1018 2464 c-82 -44 -55 -163 30 -133 42 15 41 29 -2 22 -27 -4 -36
-1 -45 15 -21 39 26 103 65 88 8 -3 14 1 14 9 0 19 -27 19 -62 -1z"/>
<path d="M917 2443 c-11 -10 -8 -143 3 -143 6 0 10 32 10 75 0 75 -1 81 -13
68z"/>
<path d="M513 2402 c-7 -4 -23 -37 -37 -72 l-24 -65 -21 48 c-12 27 -21 53
-21 59 0 6 -7 7 -16 4 -9 -3 -18 -6 -20 -6 -2 0 -4 -43 -4 -96 0 -61 4 -93 10
-89 6 3 10 41 11 83 l1 77 24 -52 c13 -29 30 -53 37 -53 7 0 22 28 34 63 l21
62 1 -72 c1 -58 4 -73 16 -73 12 0 15 17 15 95 0 93 -3 102 -27 87z"/>
<path d="M606 2365 c-23 -21 -27 -32 -24 -67 4 -52 23 -65 74 -52 21 5 39 14
41 21 3 9 -4 9 -31 1 -27 -9 -39 -8 -51 2 -25 21 -18 28 40 41 59 13 71 32 39
63 -23 23 -57 20 -88 -9z m72 -16 c2 -12 -7 -18 -34 -23 -44 -9 -48 -6 -28 23
18 25 57 25 62 0z"/>
<path d="M1420 2340 l-25 -8 25 0 c14 0 36 4 50 8 l25 8 -25 0 c-14 0 -36 -4
-50 -8z"/>
<path d="M1320 2320 l-25 -8 25 0 c14 0 36 4 50 8 l25 8 -25 0 c-14 0 -36 -4
-50 -8z"/>
<path d="M792 2215 c-249 -51 -456 -96 -460 -100 -4 -4 2 -5 13 -2 11 3 227
47 480 97 253 51 462 94 464 96 11 11 -77 -6 -497 -91z"/>
<path d="M3498 2703 c7 -3 12 -25 12 -59 0 -40 4 -54 14 -54 10 0 15 17 18 60
l3 60 -30 -1 c-16 0 -24 -3 -17 -6z"/>
<path d="M1690 2363 l0 -33 85 0 85 0 0 -257 0 -258 130 3 131 3 -1 252 -1
252 645 3 646 2 0 33 0 32 -860 0 -860 0 0 -32z"/>
<path d="M2160 2220 l0 -60 600 0 600 0 0 60 0 60 -600 0 -600 0 0 -60z"/>
<path d="M2160 2075 l0 -25 590 0 c325 0 593 -1 598 -2 4 -2 8 9 10 25 l3 27
-600 0 -601 0 0 -25z"/>
<path d="M2160 1975 l0 -25 310 0 310 0 0 25 0 25 -310 0 -310 0 0 -25z"/>
<path d="M2160 1895 l0 -25 310 0 310 0 0 25 0 25 -310 0 -310 0 0 -25z"/>
<path d="M120 1470 c0 -9 23 -30 33 -30 5 0 4 6 -2 14 -9 11 -9 15 1 19 7 3 3
4 -9 4 -13 -1 -23 -4 -23 -7z"/>
<path d="M4098 3886 c5 -44 -21 -71 -79 -81 -24 -4 -60 -15 -79 -25 -19 -9
-62 -20 -94 -23 -32 -3 -64 -11 -69 -16 -8 -8 96 -11 349 -10 313 1 355 2 329
14 -16 8 -47 14 -68 15 -21 0 -54 8 -75 19 -20 10 -57 22 -81 26 -52 9 -81 35
-81 74 0 21 -6 30 -22 35 -34 9 -34 9 -30 -28z"/>
<path d="M6541 2964 c0 -11 3 -14 6 -6 3 7 2 16 -1 19 -3 4 -6 -2 -5 -13z"/>
<path d="M7210 2460 c8 -5 22 -9 30 -9 10 0 8 3 -5 9 -27 12 -43 12 -25 0z"/>
<path d="M7268 2443 c7 -3 16 -2 19 1 4 3 -2 6 -13 5 -11 0 -14 -3 -6 -6z"/>
<path d="M3611 2046 c39 -23 367 -131 499 -165 269 -69 573 -118 883 -142 143
-11 784 -7 867 6 28 4 20 -2 -37 -30 -40 -19 -73 -37 -73 -39 0 -7 28 4 130
52 67 32 78 40 50 36 -322 -38 -854 -32 -1234 16 -315 39 -669 123 -951 225
-155 56 -166 60 -134 41z"/>
<path d="M3593 1990 c0 -30 2 -43 4 -27 2 15 2 39 0 55 -2 15 -4 2 -4 -28z"/>
<path d="M6705 1919 c-16 -6 -90 -25 -164 -44 -123 -32 -135 -33 -162 -20 -16
9 -50 18 -76 20 -48 5 -49 1 -3 -9 61 -13 80 -129 35 -223 -43 -94 -160 -195
-297 -257 l-72 -33 -24 71 c-13 39 -32 85 -43 103 l-20 32 -41 -25 c-129 -81
-441 -221 -566 -254 -52 -13 -78 0 -62 30 27 51 517 296 603 303 17 1 16 4 -8
24 -37 33 -63 29 -168 -23 -50 -26 -173 -85 -272 -131 -194 -91 -235 -121
-269 -195 l-21 -47 -74 43 c-85 51 -101 50 -166 -10 l-39 -35 75 -43 c109 -62
328 -208 374 -249 31 -28 37 -39 28 -48 -9 -9 -22 -8 -60 6 -62 22 -262 127
-380 198 -66 39 -95 52 -101 43 -26 -32 -56 -107 -62 -156 l-7 -55 -2 50 -1
50 -77 40 c-146 76 -286 175 -364 257 -42 44 -58 32 -34 -26 l15 -34 -188 -4
c-206 -3 -228 -9 -292 -71 -46 -45 -70 -101 -70 -167 0 -90 40 -157 130 -216
l43 -29 326 -7 c179 -4 412 -11 516 -17 105 -5 196 -10 204 -11 8 0 -17 -21
-55 -48 -44 -30 -80 -65 -101 -97 -18 -28 -46 -64 -63 -82 -37 -40 -40 -86 -7
-131 24 -32 69 -72 82 -72 3 0 21 -11 38 -23 53 -39 91 -50 165 -45 63 3 76 8
197 79 l130 76 180 12 c99 7 351 15 560 18 424 6 424 6 503 78 81 72 104 180
61 275 -27 60 -54 88 -114 116 -47 22 -62 24 -234 24 -162 0 -182 2 -171 15 7
8 9 15 6 15 -4 0 -2 9 5 21 7 15 8 24 0 32 -7 7 -25 -4 -58 -36 -90 -86 -251
-197 -286 -197 -11 0 -35 18 -54 39 -18 22 -48 45 -66 52 -23 8 -41 26 -60 61
-16 28 -47 62 -72 80 -25 18 -45 35 -45 38 0 3 75 50 168 105 160 95 170 100
233 103 51 3 77 -1 111 -16 l45 -20 224 107 c124 58 240 116 259 128 63 41
124 104 135 141 6 22 5 24 -32 21 -29 -3 -40 -9 -48 -27 -8 -19 -10 -5 -9 58
1 45 4 84 7 86 3 3 20 7 39 8 54 5 138 34 138 48 0 8 -8 9 -47 11 -28 1 -106
-14 -125 -24 -14 -8 -24 -2 -47 23 l-29 33 126 32 c70 18 139 37 153 42 24 8
27 6 47 -42 12 -28 24 -48 27 -45 6 5 -37 108 -45 107 -3 0 -18 -5 -35 -10z
m-229 -393 c-20 -31 -54 -64 -81 -78 -11 -6 1 8 27 31 26 23 50 51 53 62 4 11
9 18 12 15 3 -3 -2 -17 -11 -30z m-156 -116 c-19 -11 -39 -19 -45 -19 -5 0 6
8 25 19 19 11 40 19 45 19 6 0 -6 -8 -25 -19z m-130 -60 c-19 -11 -39 -19 -45
-19 -5 0 6 8 25 19 19 11 40 19 45 19 6 0 -6 -8 -25 -19z m-213 -62 c-3 -7 -5
-2 -5 12 0 14 2 19 5 13 2 -7 2 -19 0 -25z m73 -3 c-25 -13 -49 -24 -55 -24
-5 0 10 11 35 24 25 13 50 24 55 24 6 0 -10 -11 -35 -24z m-1787 -60 c16 -38
17 -48 5 -72 -20 -42 -83 -55 -248 -50 -149 4 -214 21 -208 54 7 38 54 48 218
48 85 0 168 -4 184 -8 29 -8 29 -8 14 16 -11 16 -13 28 -6 40 14 26 21 21 41
-28z m1712 36 c3 -5 1 -12 -5 -16 -5 -3 -10 1 -10 9 0 18 6 21 15 7z m-1645
-117 c0 -2 -9 0 -20 6 -11 6 -20 13 -20 16 0 2 9 0 20 -6 11 -6 20 -13 20 -16z
m50 -30 c0 -2 -9 0 -20 6 -11 6 -20 13 -20 16 0 2 9 0 20 -6 11 -6 20 -13 20
-16z m50 -30 c0 -2 -9 0 -20 6 -11 6 -20 13 -20 16 0 2 9 0 20 -6 11 -6 20
-13 20 -16z m50 -30 c0 -2 -9 0 -20 6 -11 6 -20 13 -20 16 0 2 9 0 20 -6 11
-6 20 -13 20 -16z m70 -40 c0 -2 -9 0 -20 6 -11 6 -20 13 -20 16 0 2 9 0 20
-6 11 -6 20 -13 20 -16z m1452 -138 c-16 -18 -16 -19 18 -13 126 21 330 14
382 -14 23 -13 23 -45 -1 -58 -75 -41 -431 -33 -431 9 0 5 -6 15 -13 22 -11
11 -9 22 11 67 24 53 25 54 38 30 11 -20 10 -27 -4 -43z m-102 -71 c0 -2 -10
-9 -22 -15 -22 -11 -22 -10 -4 4 21 17 26 19 26 11z m-50 -30 c0 -2 -10 -9
-22 -15 -22 -11 -22 -10 -4 4 21 17 26 19 26 11z m-50 -30 c0 -2 -10 -9 -22
-15 -22 -11 -22 -10 -4 4 21 17 26 19 26 11z m-50 -30 c0 -2 -10 -9 -22 -15
-22 -11 -22 -10 -4 4 21 17 26 19 26 11z m-50 -30 c0 -2 -10 -9 -22 -15 -22
-11 -22 -10 -4 4 21 17 26 19 26 11z m-576 -31 c13 -5 8 -13 -21 -36 -48 -38
-100 -60 -133 -56 l-25 3 29 27 c22 21 83 52 133 67 1 1 8 -2 17 -5z"/>
<path d="M5710 1670 c-8 -5 -10 -10 -5 -10 6 0 17 5 25 10 8 5 11 10 5 10 -5
0 -17 -5 -25 -10z"/>
<path d="M5620 1630 c-8 -5 -10 -10 -5 -10 6 0 17 5 25 10 8 5 11 10 5 10 -5
0 -17 -5 -25 -10z"/>
<path d="M5327 1613 c18 -2 50 -2 70 0 21 2 7 4 -32 4 -38 0 -55 -2 -38 -4z"/>
<path d="M3280 804 c57 -150 -121 -321 -391 -375 -35 -8 -67 -18 -71 -24 -4
-5 -8 9 -8 31 0 49 -16 139 -31 175 -10 25 -12 26 -37 13 -35 -17 -281 -78
-397 -99 -49 -9 -132 -19 -182 -22 -83 -5 -93 -4 -99 12 -11 27 26 51 121 80
117 36 334 82 454 98 l103 12 -26 28 c-14 15 -34 27 -44 27 -23 0 -575 -116
-617 -130 -17 -6 -47 -24 -68 -41 -105 -87 -110 -256 -10 -351 39 -37 131 -78
176 -78 36 0 267 47 884 180 291 63 366 90 419 153 29 34 24 47 -20 47 -27 0
-37 -7 -63 -44 -18 -25 -42 -50 -54 -56 -15 -8 -11 -1 13 22 19 19 43 52 53
74 23 48 27 140 7 172 -8 12 -11 22 -6 22 4 0 -15 23 -43 50 -57 56 -78 64
-63 24z m-20 -394 c-8 -5 -24 -9 -35 -9 -16 1 -16 2 5 9 35 11 48 11 30 0z
m-63 -16 c-3 -3 -12 -4 -19 -1 -8 3 -5 6 6 6 11 1 17 -2 13 -5z m-44 -11 c-7
-2 -21 -2 -30 0 -10 3 -4 5 12 5 17 0 24 -2 18 -5z m-346 -32 c-6 -29 -5 -30
31 -26 35 4 35 4 7 -4 -59 -17 -63 -15 -51 24 13 43 21 46 13 6z m290 23 c-3
-3 -12 -4 -19 -1 -8 3 -5 6 6 6 11 1 17 -2 13 -5z m-87 -19 c-30 -8 -64 -14
-75 -14 -27 1 73 27 105 27 14 0 0 -6 -30 -13z m-103 -21 c-3 -3 -12 -4 -19
-1 -8 3 -5 6 6 6 11 1 17 -2 13 -5z"/>
</g>
</svg>
